<?xml version="1.0" encoding="UTF-8"?>
<svg id="Calque_2" data-name="Calque 2" xmlns="http://www.w3.org/2000/svg" viewBox="0 0 118.18 101.2">
  <defs>
    <style>
      .cls-1 {
        fill: #cc1517;
      }
    </style>
  </defs>
  <g id="Layer_1" data-name="Layer 1">
    <path class="cls-1" d="M110.35,36.06c1.53-3.46,3.05-6.92,4.35-10.48,1.28-3.5,2.41-7.04,3.05-10.72,.2-1.15,.35-2.32,.4-3.49,.13-2.62-.38-5.11-1.84-7.33-1.2-1.83-2.8-3.2-4.97-3.76-2.8-.71-5.29-.03-7.5,1.78-1.38,1.13-2.4,2.52-2.75,4.3-.57,2.92,.04,5.57,1.99,7.84,.78,.91,1.67,1.73,2.52,2.58,.74,.74,1.45,1.5,2.06,2.37,.89,1.27,1.17,2.67,.98,4.19-.25,2.03-.85,3.97-1.53,5.88-1.57,4.39-3.56,8.61-5.52,12.83-1.18,2.54-2.46,5.02-3.84,7.46-.13,.23-.28,.45-.43,.67-.29,.44-.72,.53-1.2,.41-.5-.12-.83-.44-.92-.95-.07-.43-.12-.87-.18-1.3-.24-1.86-.44-3.72-.74-5.58-.36-2.22-.74-4.44-1.2-6.64-.94-4.5-1.92-8.99-2.89-13.48-.58-2.69-1.16-5.38-1.74-8.06-.03-.17-.07-.34-.11-.5-.18-.62-.78-1.01-1.41-.89-.16,.03-.33,.12-.45,.23-.22,.22-.42,.46-.59,.72-1.55,2.37-3.08,4.75-4.63,7.12-4.37,6.69-8.74,13.38-13.11,20.06-3.09,4.74-6.19,9.48-9.29,14.21-.15,.22-.29,.45-.46,.65-.21,.25-.44,.49-.69,.69-.66,.5-1.19,.5-1.82-.04-.27-.23-.53-.49-.72-.79-.77-1.23-1.53-2.47-2.25-3.73-.67-1.16-.57-1.91,.35-2.88,.34-.36,.74-.68,1.14-.97,3.52-2.56,6.11-5.88,7.96-9.79,1.24-2.61,2.04-5.34,2.41-8.2,.33-2.52,.34-5.05,.06-7.58-.3-2.74-.98-5.38-2.09-7.9-1.08-2.46-2.52-4.67-4.27-6.7-1.48-1.71-3.14-3.23-5.01-4.5-2.76-1.89-5.79-3.07-9.1-3.5-1.07-.14-2.15-.22-3.22-.22-12.84-.02-25.68,0-38.52-.02C1.51,.05,.5,.87,.22,1.84c-.04,.12-.07,.2-.22,.18V71.08c.14-.02,.18,.07,.21,.19,.28,.95,1.28,1.8,2.46,1.79,6.27-.03,12.54-.02,18.81,0,1.06,0,1.78-.49,2.29-1.35,.15-.26,.17-.59,.23-.9,.03-.17,0-.34,0-.52v-13.04c0-.14,0-.28,0-.42,.02-.86,.62-1.36,1.46-1.2,.13,.02,.27,.1,.36,.2,.19,.22,.37,.46,.52,.71,2.69,4.58,5.37,9.17,8.06,13.76,.36,.62,.75,1.22,1.27,1.73,.7,.68,1.52,1.02,2.49,1.02,4.07,0,8.13,0,12.2,0,.99,0,1.85-.32,2.53-1.04,.44-.46,.85-.96,1.2-1.5,3-4.56,5.98-9.13,8.96-13.7,3.57-5.46,7.13-10.92,10.7-16.37,.2-.31,.46-.59,.7-.87,.41-.46,.91-.42,1.37-.2,.47,.23,.73,.61,.83,1.12,.17,.92,.36,1.84,.54,2.76,.61,3.19,1.22,6.38,1.83,9.58,.68,3.58,1.32,7.16,1.81,10.77,.28,2.08,.48,4.16,.64,6.25,.24,3.21-.63,6.12-2.18,8.88-1.22,2.18-2.67,4.19-4.34,6.05-1.12,1.25-2.32,2.41-3.8,3.24-.67,.38-1.38,.65-2.14,.8-.9,.17-1.77,.03-2.63-.24-.83-.26-1.58-.67-2.33-1.11-1.22-.71-2.42-1.44-3.65-2.11-1.29-.69-2.68-1.1-4.14-1.31-3.87-.56-7.63,1.72-8.74,5.37-.55,1.8-.47,3.62-.01,5.42,.65,2.52,2.25,4.24,4.6,5.29,1.39,.62,2.87,.85,4.38,.95,.5,.03,1,.13,1.49,.1,1.68-.11,3.36-.32,4.98-.84,2.71-.86,5.15-2.25,7.43-3.93,2.55-1.88,4.85-4.05,6.97-6.39,3.46-3.83,6.63-7.91,9.67-12.08,3.17-4.35,6.11-8.85,8.86-13.48,2.42-4.07,4.7-8.23,6.86-12.45,2.69-5.24,5.2-10.57,7.58-15.97Zm-73.41-2.92c-.5,.19-1.06,.32-1.59,.34-2.53,.06-5.06,.07-7.59,.09-.54,0-1.09,0-1.64-.04-.93-.07-2.15-1.31-2.12-2.52,.04-1.39,0-2.78,0-4.17s0-2.72,0-4.08c0-1.19,.64-1.96,1.63-2.47,.25-.13,.57-.16,.86-.16,2.66-.01,5.32-.01,7.97,0,3.69,.01,5.88,2.59,6.51,4.97,.98,3.68-1.09,6.93-4.05,8.06Z"/>
  </g>
</svg>