<?xml version="1.0" encoding="UTF-8"?>
<svg id="Calque_2" data-name="Calque 2" xmlns="http://www.w3.org/2000/svg" viewBox="0 0 374.65 101.2">
  <defs>
    <style>
      .cls-1 {
        fill: #cc1517;
      }

      .cls-2 {
        fill: #1d1d1b;
      }
    </style>
  </defs>
  <g id="Layer_1" data-name="Layer 1">
    <g>
      <path class="cls-1" d="M110.35,36.06c1.53-3.46,3.05-6.92,4.35-10.48,1.28-3.5,2.41-7.04,3.05-10.72,.2-1.15,.35-2.32,.4-3.49,.13-2.62-.38-5.11-1.84-7.33-1.2-1.83-2.8-3.2-4.97-3.76-2.8-.71-5.29-.03-7.5,1.78-1.38,1.13-2.4,2.52-2.75,4.3-.57,2.92,.04,5.57,1.99,7.84,.78,.91,1.67,1.73,2.52,2.58,.74,.74,1.45,1.5,2.06,2.37,.89,1.27,1.17,2.67,.98,4.19-.25,2.03-.85,3.97-1.53,5.88-1.57,4.39-3.56,8.61-5.52,12.83-1.18,2.54-2.46,5.02-3.84,7.46-.13,.23-.28,.45-.43,.67-.29,.44-.72,.53-1.2,.41-.5-.12-.83-.44-.92-.95-.07-.43-.12-.87-.18-1.3-.24-1.86-.44-3.72-.74-5.58-.36-2.22-.74-4.44-1.2-6.64-.94-4.5-1.92-8.99-2.89-13.48-.58-2.69-1.16-5.38-1.74-8.06-.03-.17-.07-.34-.11-.5-.18-.62-.78-1.01-1.41-.89-.16,.03-.33,.12-.45,.23-.22,.22-.42,.46-.59,.72-1.55,2.37-3.08,4.75-4.63,7.12-4.37,6.69-8.74,13.38-13.11,20.06-3.09,4.74-6.19,9.48-9.29,14.21-.15,.22-.29,.45-.46,.65-.21,.25-.44,.49-.69,.69-.66,.5-1.19,.5-1.82-.04-.27-.23-.53-.49-.72-.79-.77-1.23-1.53-2.47-2.25-3.73-.67-1.16-.57-1.91,.35-2.88,.34-.36,.74-.68,1.14-.97,3.52-2.56,6.11-5.88,7.96-9.79,1.24-2.61,2.04-5.34,2.41-8.2,.33-2.52,.34-5.05,.06-7.58-.3-2.74-.98-5.38-2.09-7.9-1.08-2.46-2.52-4.67-4.27-6.7-1.48-1.71-3.14-3.23-5.01-4.5-2.76-1.89-5.79-3.07-9.1-3.5-1.07-.14-2.15-.22-3.22-.22-12.84-.02-25.68,0-38.52-.02C1.51,.05,.5,.87,.22,1.84c-.04,.12-.07,.2-.22,.18V71.08c.14-.02,.18,.07,.21,.19,.28,.95,1.28,1.8,2.46,1.79,6.27-.03,12.54-.02,18.81,0,1.06,0,1.78-.49,2.29-1.35,.15-.26,.17-.59,.23-.9,.03-.17,0-.34,0-.52v-13.04c0-.14,0-.28,0-.42,.02-.86,.62-1.36,1.46-1.2,.13,.02,.27,.1,.36,.2,.19,.22,.37,.46,.52,.71,2.69,4.58,5.37,9.17,8.06,13.76,.36,.62,.75,1.22,1.27,1.73,.7,.68,1.52,1.02,2.49,1.02,4.07,0,8.13,0,12.2,0,.99,0,1.85-.32,2.53-1.04,.44-.46,.85-.96,1.2-1.5,3-4.56,5.98-9.13,8.96-13.7,3.57-5.46,7.13-10.92,10.7-16.37,.2-.31,.46-.59,.7-.87,.41-.46,.91-.42,1.37-.2,.47,.23,.73,.61,.83,1.12,.17,.92,.36,1.84,.54,2.76,.61,3.19,1.22,6.38,1.83,9.58,.68,3.58,1.32,7.16,1.81,10.77,.28,2.08,.48,4.16,.64,6.25,.24,3.21-.63,6.12-2.18,8.88-1.22,2.18-2.67,4.19-4.34,6.05-1.12,1.25-2.32,2.41-3.8,3.24-.67,.38-1.38,.65-2.14,.8-.9,.17-1.77,.03-2.63-.24-.83-.26-1.58-.67-2.33-1.11-1.22-.71-2.42-1.44-3.65-2.11-1.29-.69-2.68-1.1-4.14-1.31-3.87-.56-7.63,1.72-8.74,5.37-.55,1.8-.47,3.62-.01,5.42,.65,2.52,2.25,4.24,4.6,5.29,1.39,.62,2.87,.85,4.38,.95,.5,.03,1,.13,1.49,.1,1.68-.11,3.36-.32,4.98-.84,2.71-.86,5.15-2.25,7.43-3.93,2.55-1.88,4.85-4.05,6.97-6.39,3.46-3.83,6.63-7.91,9.67-12.08,3.17-4.35,6.11-8.85,8.86-13.48,2.42-4.07,4.7-8.23,6.86-12.45,2.69-5.24,5.2-10.57,7.58-15.97Zm-73.41-2.92c-.5,.19-1.06,.32-1.59,.34-2.53,.06-5.06,.07-7.59,.09-.54,0-1.09,0-1.64-.04-.93-.07-2.15-1.31-2.12-2.52,.04-1.39,0-2.78,0-4.17s0-2.72,0-4.08c0-1.19,.64-1.96,1.63-2.47,.25-.13,.57-.16,.86-.16,2.66-.01,5.32-.01,7.97,0,3.69,.01,5.88,2.59,6.51,4.97,.98,3.68-1.09,6.93-4.05,8.06Z"/>
      <g>
        <g>
          <path class="cls-1" d="M138.22,43.3h-9.59v-11.53c0-.59-.45-1.06-1.04-1.06h-2.07c-.59,0-1.04,.47-1.04,1.06v13.62c0,.56,.47,1.01,1.04,1.01h12.7c.56,0,1.04-.45,1.04-1.03v-1.03c0-.58-.47-1.03-1.04-1.03Z"/>
          <path class="cls-1" d="M151.94,38.96c0-3.43-2.55-4.77-5.8-4.77-3.66,0-6.01,.81-6.01,3.13,0,.38,.29,.67,.68,.67h1.65c.56,0,.97-.23,1.26-.58,.38-.47,1.22-.74,2.14-.74,1.51,0,2.26,.54,2.26,2.29h-3.66c-2.95,0-5.21,1.28-5.21,3.8s2.26,3.86,5.21,3.86c1.74,0,2.98-.52,4-1.23v.34c0,.38,.29,.67,.67,.67h2.12c.38,0,.68-.29,.68-.67v-6.76Zm-3.81,4.19c-.79,.49-1.92,.99-3.27,.99-1.17,0-1.78-.58-1.78-1.37,0-.74,.61-1.32,1.67-1.32h3.38v1.7Z"/>
          <path class="cls-1" d="M157.48,26.6v18.41c0,.75,.65,1.39,1.41,1.39h2.81c.79,0,1.4-.64,1.4-1.39v-6.36h3.63c1.92,0,3.02,1.25,3.79,2.42l2.53,3.94c.49,.78,1.52,1.39,2.29,1.39h3.56c.79,0,1.01-.6,.52-1.39l-2.71-4.27c-1.22-1.91-2.13-2.97-3.38-3.42,3.08-.6,5.6-2.12,5.6-5.39,0-4.18-3.32-6.72-7.77-6.72h-12.28c-.76,0-1.38,.61-1.38,1.39Zm5.61,2.78h6.35c1.7,0,3.87,.61,3.87,2.54s-2.17,2.55-3.87,2.55h-6.35v-5.09Z"/>
          <path class="cls-1" d="M188.36,46.7c5.76,0,9-2.85,9-8.41s-3.23-8.38-9-8.38-8.99,2.81-8.99,8.38,3.23,8.41,8.99,8.41Zm0-13.44c2.59,0,3.85,1.45,3.85,5.03s-1.25,5.05-3.85,5.05-3.84-1.48-3.84-5.05,1.25-5.03,3.84-5.03Z"/>
          <path class="cls-1" d="M206.96,46.7c5.25,0,8.42-1.69,8.42-5.14,0-.51-.39-.91-.91-.91h-2.23c-.76,0-1.28,.42-1.71,1.09-.52,.82-1.65,1.39-3.2,1.39-3.05,0-4.05-1.48-4.05-4.81s1-4.84,3.9-4.84c1.56,0,2.69,.57,3.2,1.39,.42,.67,.95,1.09,1.71,1.09h2.23c.52,0,.91-.39,.91-.91,0-3.45-3.17-5.15-8.41-5.15-5.61,0-8.84,2.84-8.84,8.41s3.2,8.38,8.99,8.38Z"/>
          <path class="cls-1" d="M217.51,46.4h3.32c.52,0,.92-.39,.92-.91v-9.89c1.1-1.09,2.5-2.12,3.99-2.12,1.68,0,2.83,1.03,2.83,3.54v8.47c0,.52,.4,.91,.91,.91h3.32c.52,0,.91-.39,.91-.91v-8.47c0-5.02-2.8-7.11-6.77-7.11-2.28,0-3.81,.97-5.21,2.15v-5.93c0-.52-.39-.91-.92-.91h-3.32c-.51,0-.91,.39-.91,.91v19.37c0,.52,.4,.91,.91,.91Z"/>
          <path class="cls-1" d="M243.94,46.7c4.88,0,8.14-1.09,8.14-4.24,0-.52-.4-.91-.92-.91h-2.22c-.76,0-1.31,.31-1.71,.79-.51,.63-1.64,1-2.93,1-2.5,0-3.6-1.06-3.81-3.48h11.22c.52,0,.92-.39,.92-.91v-.85c0-5.32-3.26-8.2-8.69-8.2s-8.68,2.97-8.68,8.41,3.26,8.38,8.68,8.38Zm0-13.44c2.26,0,3.36,1.21,3.45,3.48h-6.92c.12-2.27,1.28-3.48,3.47-3.48Z"/>
          <path class="cls-1" d="M275.72,41.91c0,.85-.86,1.42-3.41,1.42-1.31,0-2.44-.36-2.96-1-.39-.48-.94-.79-1.7-.79h-2.23c-.52,0-.91,.39-.91,.91,0,3.15,3.17,4.24,8.17,4.24s8.2-1.36,8.2-4.78c0-6.17-11.25-4.72-11.25-7.23,0-.85,.85-1.42,2.95-1.42,1.31,0,2.45,.36,2.96,1,.39,.48,.95,.79,1.7,.79h2.23c.52,0,.92-.39,.92-.91,0-3.14-3.17-4.23-8.17-4.23-4.3,0-7.74,1.36-7.74,4.78,0,6.11,11.25,4.72,11.25,7.23Z"/>
          <path class="cls-1" d="M289.16,46.7c2.28,0,3.81-.97,5.21-2.15v.93c0,.52,.4,.91,.92,.91h3.32c.52,0,.91-.39,.91-.91v-14.37c0-.51-.4-.91-.91-.91h-3.32c-.52,0-.92,.39-.92,.91v9.9c-1.09,1.09-2.49,2.12-3.99,2.12-1.68,0-2.83-1.03-2.83-3.54v-8.47c0-.51-.4-.91-.91-.91h-3.33c-.52,0-.91,.39-.91,.91v8.47c0,5.03,2.81,7.11,6.77,7.11Z"/>
          <path class="cls-1" d="M302.88,46.4h3.32c.52,0,.91-.39,.91-.91v-9.44c1.1-1.3,2.32-2.18,3.84-2.18,.8,0,1.58,.09,2.29,.09h.49c.52,0,.92-.39,.92-.91v-2.24c0-.51-.4-.91-.92-.91-3.35,0-4.91,.91-6.62,2.15v-.94c0-.51-.39-.91-.91-.91h-3.32c-.52,0-.91,.39-.91,.91v14.37c0,.52,.39,.91,.91,.91Z"/>
          <path class="cls-1" d="M257.76,40.52h2.56c1.79,0,2.81-.56,2.81-1.56v-.74c0-1-1.02-1.56-2.81-1.56h-2.56c-1.79,0-2.82,.57-2.82,1.56v.74c0,1,1.03,1.56,2.82,1.56Z"/>
          <path class="cls-1" d="M313.98,38.23v.74c0,1,1.03,1.56,2.82,1.56h2.56c1.79,0,2.82-.56,2.82-1.56v-.74c0-1-1.03-1.56-2.82-1.56h-2.56c-1.79,0-2.82,.57-2.82,1.56Z"/>
          <path class="cls-1" d="M327.24,38.83v6.2c0,.76,.64,1.36,1.4,1.36h2.8c.77,0,1.4-.6,1.4-1.36v-6.2l7.95-12.23c.46-.69,.25-1.39-.52-1.39h-2.83c-1.22,0-2.07,.61-2.59,1.39l-4.81,7.38-4.82-7.38c-.52-.79-1.38-1.39-2.59-1.39h-2.84c-.77,0-.98,.7-.52,1.39l7.96,12.23Z"/>
          <path class="cls-1" d="M347,29.9c-5.76,0-8.99,2.81-8.99,8.38s3.23,8.41,8.99,8.41,8.99-2.85,8.99-8.41-3.23-8.38-8.99-8.38Zm0,13.43c-2.59,0-3.84-1.48-3.84-5.05s1.25-5.03,3.84-5.03,3.85,1.45,3.85,5.03-1.26,5.05-3.85,5.05Z"/>
          <path class="cls-1" d="M367.88,29.9c-2.29,0-3.81,.97-5.21,2.15v-.94c0-.51-.4-.91-.92-.91h-3.32c-.52,0-.91,.39-.91,.91v14.37c0,.52,.39,.91,.91,.91h3.32c.52,0,.92-.39,.92-.91v-9.89c1.1-1.09,2.5-2.12,4-2.12,1.68,0,2.84,1.03,2.84,3.54v8.47c0,.52,.4,.91,.91,.91h3.32c.52,0,.92-.39,.92-.91v-8.47c0-5.02-2.81-7.11-6.77-7.11Z"/>
        </g>
        <g>
          <path class="cls-2" d="M168.63,55.05c.09-.17,.34-.24,.73-.24,.32,0,.57,.1,.73,.3,.16,.2,.24,.59,.23,1.17-.01,.58-.09,1.32-.24,2.22-.15,.9-.4,2.13-.75,3.69-.42,1.86-.64,3.78-.66,5.77-.02,1.74,.05,2.77,.21,3.1,.21,.39,.8,.57,1.77,.52,.25-.02,.88-.08,1.88-.17,2.06-.19,3.49-.26,4.28-.21,.53,.05,.86,.1,.97,.17,.12,.07,.17,.23,.17,.49,0,.42-.34,.71-1.01,.89-.67,.17-2.08,.34-4.24,.5-2.04,.16-3.39,.19-4.05,.07-.66-.12-1.13-.44-1.41-.97-.42-.79-.63-1.93-.65-3.44,0-1.5,.06-2.84,.23-4,.16-1.16,.42-2.63,.76-4.42,.35-1.78,.53-2.79,.56-3.02,.23-1.44,.39-2.23,.49-2.4"/>
          <path class="cls-2" d="M182.11,65.09c.93-.49,1.61-1.2,2.05-2.15,.33-.67,.31-1.01-.03-1.01s-.94,.38-1.77,1.15c-.74,.7-1.18,1.33-1.32,1.91-.09,.39,.11,.5,.63,.31,.12-.05,.27-.11,.45-.21m1.29-4.83c1.3-.62,2.18-.72,2.64-.28,.18,.21,.27,.77,.26,1.69-.01,.92-.11,1.57-.29,1.97-.35,.67-1.11,1.48-2.29,2.42-1.18,.94-2.14,1.5-2.85,1.69-.51,.14-1.01,.47-1.51,1.01-.5,.54-.75,1.02-.75,1.46s.18,.86,.55,1.27c.37,.4,.75,.61,1.15,.61,.42,0,1.08-.13,2-.39,.91-.25,1.64-.52,2.17-.8,.51-.26,1.02-.61,1.53-1.06,.51-.45,.9-.78,1.18-.99,.28-.21,.52-.24,.73-.11,.39,.23,.53,.53,.42,.89-.12,.36-.5,.82-1.15,1.37-.67,.63-1.33,1.12-1.96,1.48-.64,.36-1.43,.7-2.38,1.03-1.48,.51-2.78,.51-3.89,0-.53-.25-.95-.54-1.25-.85-.3-.31-.58-.78-.83-1.39-.25-.61-.32-1.24-.21-1.88,.12-.64,.45-1.52,1.01-2.66,1.62-3.22,3.53-5.38,5.74-6.47"/>
          <path class="cls-2" d="M205.24,59.18c.51-.28,.95-.39,1.32-.35,.37,.05,.74,.25,1.11,.62,.44,.44,.71,.87,.8,1.29,.09,.42,.02,.89-.21,1.42l-.35,.87-.94-.97c-.54-.53-.94-.83-1.22-.89-.28-.06-.65,.08-1.11,.4-.44,.3-1.14,1.16-2.09,2.57-.95,1.42-1.49,2.4-1.63,2.95-.42,1.49-.3,2.57,.36,3.25,.66,.69,1.78,.88,3.36,.57,1.55-.3,2.79-.75,3.72-1.35,.93-.6,1.61-1.39,2.05-2.37l.56-1.32,.45,.56c.84,1.05,.5,2.27-1.01,3.68-1.16,1.09-2.84,1.88-5.04,2.37-2.2,.49-3.77,.41-4.69-.24-.88-.58-1.45-1.43-1.7-2.55-.25-1.12-.16-2.28,.28-3.46,.39-1.09,1.25-2.42,2.59-4,1.33-1.58,2.46-2.6,3.39-3.06"/>
          <path class="cls-2" d="M218.4,63.32c-.6-.58-1.56-.68-2.89-.32-.93,.26-1.44,.95-1.53,2.09-.02,.37,0,.6,.05,.69,.06,.09,.26,.15,.61,.18,.42,.05,1.13-.04,2.14-.28,1.01-.23,1.63-.45,1.86-.64,.23-.2,.32-.45,.28-.78-.05-.33-.22-.64-.52-.94m.45,3.96c-.07-.16-.15-.26-.23-.3-.08-.03-.22-.02-.42,.04-.2,.06-.42,.13-.68,.23-.26,.09-.65,.19-1.18,.31-.53,.12-1.11,.21-1.74,.28l-1.6,.18-.11,1.11c-.04,1.02,.23,1.7,.84,2.04,.6,.34,1.39,.26,2.36-.23,.72-.37,1.39-.97,2.02-1.81,.62-.83,.87-1.45,.73-1.84m-2.82-6.67c.77-.28,1.58-.41,2.43-.38l1.28,.07,.77,1.6c.51,1.04,.89,1.61,1.13,1.7,.24,.09,.06,2.2-.28,2.57-.34,.37-.65,1.12-.95,2.26-.23,1-.62,1.81-1.17,2.44-.55,.62-1.32,1.16-2.31,1.6-1.88,.86-3.32,.95-4.31,.28-.6-.42-1.03-.92-1.27-1.51-.24-.59-.36-1.46-.36-2.63,0-1.3-.08-2.24-.25-2.82-.16-.58-.12-1.12,.14-1.61,.26-.5,.79-1.06,1.6-1.69,.6-.49,1.07-.82,1.41-.99,.34-.18,1.05-.47,2.14-.89"/>
          <path class="cls-2" d="M224.84,64.22c.93-.49,1.61-1.2,2.05-2.16,.33-.67,.31-1.01-.03-1.01s-.94,.38-1.77,1.15c-.74,.7-1.18,1.33-1.32,1.91-.09,.39,.12,.5,.63,.31,.12-.04,.27-.11,.45-.21m1.29-4.83c1.3-.63,2.18-.72,2.64-.28,.18,.21,.27,.77,.26,1.69-.01,.92-.11,1.57-.3,1.97-.35,.67-1.11,1.48-2.3,2.42-1.18,.94-2.13,1.5-2.85,1.69-.51,.14-1.01,.48-1.51,1.01-.5,.53-.75,1.02-.75,1.46s.18,.86,.56,1.27c.37,.4,.75,.61,1.15,.61,.42,0,1.08-.13,2-.38,.91-.26,1.64-.52,2.17-.8,.51-.25,1.02-.61,1.53-1.06,.51-.45,.9-.78,1.18-.99,.28-.21,.52-.24,.73-.1,.39,.23,.53,.53,.41,.89-.11,.36-.5,.82-1.15,1.37-.67,.62-1.33,1.12-1.96,1.48-.64,.36-1.43,.7-2.38,1.02-1.48,.51-2.78,.51-3.89,0-.53-.25-.95-.54-1.25-.85-.3-.31-.58-.77-.84-1.39-.26-.61-.32-1.24-.21-1.88,.12-.64,.45-1.52,1.01-2.66,1.62-3.22,3.53-5.38,5.74-6.47"/>
          <path class="cls-2" d="M231.19,61.83c.11-.72,.37-1.21,.77-1.46,.3-.21,.59-.09,.87,.35,.16,.28,.1,1.05-.17,2.33l-.8,3.62c-.28,1.34-.28,2.02,0,2.02,.35,0,1.55-1.2,3.62-3.62,.18-.21,.39-.43,.63-.66,1.53-1.81,2.41-2.73,2.64-2.78,.25-.05,.48,.08,.68,.38,.2,.3,.29,.67,.29,1.11,0,.33-.16,1.36-.49,3.11-.33,1.75-.44,2.73-.35,2.94,.09,.28,.34,.39,.73,.33,.39-.05,1.02-.28,1.88-.68,.49-.21,.86-.36,1.13-.47,.27-.1,.49-.17,.66-.18,.17-.01,.28,.02,.33,.09,.05,.07,.07,.2,.07,.38,0,.58-.5,1.18-1.51,1.81-1.01,.62-2.09,.99-3.25,1.11-.51,.05-.87,.05-1.08,0s-.43-.17-.66-.38c-.32-.32-.49-.65-.49-.97,0-.44-.1-.98-.31-1.62-.21-.64-.4-.96-.56-.96-.21,0-.87,.59-1.98,1.77-.72,.75-1.23,1.22-1.53,1.43-.3,.21-.61,.31-.94,.31-.49,0-.86-.19-1.11-.56-.3-.47-.46-1.04-.47-1.74-.01-.7,.06-1.36,.22-2,.16-.64,.37-1.46,.63-2.47,.25-1.01,.44-1.86,.56-2.55"/>
          <path class="cls-2" d="M244.26,60.16c.25-.28,.45-.42,.57-.44,.13-.01,.28,.1,.47,.33,.23,.28,.22,1.7-.04,4.28-.21,2.11-.17,3.18,.1,3.2,.16,0,.39-.24,.69-.73,.39-.6,1.28-1.55,2.64-2.84,1.37-1.28,2.24-1.97,2.61-2.07,.46-.12,.81-.07,1.04,.12,.23,.2,.28,.46,.16,.8-.13,.34-.41,.62-.85,.85-.76,.39-1.59,1.04-2.49,1.91-.89,.88-1.61,1.67-2.14,2.36-.53,.7-.8,1.11-.8,1.22,0,.26-.38,.88-1.13,1.88-.75,.99-1.23,1.49-1.41,1.49-.3,0-.52-.09-.66-.26-.14-.17-.22-.55-.26-1.13-.04-.58,0-1.33,.08-2.26,.09-.92,.25-2.22,.45-3.89,.37-2.94,.68-4.56,.94-4.83"/>
          <path class="cls-2" d="M259.54,51.06c.21-.2,.4-.3,.58-.3,.41,0,.72,.36,.94,1.09,.22,.72,.49,2.25,.83,4.58,.56,3.97,1.1,7.14,1.61,9.52,.51,2.38,.94,3.63,1.27,3.75,.15,.02,.36-.31,.63-.99,.27-.68,.54-1.54,.83-2.57,.28-1.03,.49-1.97,.61-2.83,.26-1.59,.67-3.31,1.23-5.15,.56-1.84,1.08-3.3,1.54-4.39,.46-1.09,.76-1.66,.89-1.71,.26-.1,.51-.03,.75,.22,.24,.25,.36,.53,.36,.85,0,.27-.18,.93-.54,1.99-.36,1.05-.79,2.38-1.29,3.99-.5,1.61-.89,3.06-1.17,4.36-.54,2.57-1.08,4.83-1.63,6.77-.55,1.93-.98,3.04-1.29,3.31-.38,.37-.81,.47-1.27,.31-.46-.16-.84-.53-1.12-1.12-.54-1.05-1.14-3.04-1.81-5.95-.67-2.92-1.26-6.23-1.77-9.93-.31-2.01-.47-3.42-.5-4.24-.03-.82,.08-1.33,.31-1.52"/>
          <path class="cls-2" d="M276.04,65.09c.93-.49,1.61-1.2,2.05-2.15,.32-.67,.31-1.01-.04-1.01s-.94,.38-1.77,1.15c-.74,.7-1.18,1.33-1.32,1.91-.09,.39,.12,.5,.63,.31,.12-.05,.27-.11,.45-.21m1.29-4.83c1.3-.62,2.18-.72,2.64-.28,.18,.21,.27,.77,.26,1.69-.01,.92-.11,1.57-.3,1.97-.34,.67-1.11,1.48-2.29,2.42-1.18,.94-2.13,1.5-2.85,1.69-.51,.14-1.01,.47-1.51,1.01-.5,.54-.75,1.02-.75,1.46s.18,.86,.56,1.27c.37,.4,.75,.61,1.15,.61,.42,0,1.09-.13,2-.39,.92-.25,1.64-.52,2.17-.8,.51-.26,1.02-.61,1.53-1.06,.51-.45,.9-.78,1.18-.99,.28-.21,.52-.24,.73-.11,.4,.23,.53,.53,.42,.89-.12,.36-.5,.82-1.15,1.37-.67,.63-1.33,1.12-1.96,1.48-.64,.36-1.43,.7-2.38,1.03-1.48,.51-2.78,.51-3.89,0-.53-.25-.95-.54-1.25-.85-.3-.31-.58-.78-.84-1.39s-.32-1.24-.21-1.88c.12-.64,.45-1.52,1.01-2.66,1.62-3.22,3.53-5.38,5.74-6.47"/>
          <path class="cls-2" d="M281.9,63.74c.25-1.88,.46-3.1,.61-3.65,.15-.56,.41-.83,.78-.83,.23,0,.41,.04,.52,.11,.12,.07,.2,.26,.26,.57,.06,.31,.08,.71,.07,1.2-.01,.49-.05,1.22-.12,2.19-.16,2.32-.21,3.5-.14,3.54,.02,.05,.29-.21,.8-.76,.51-.56,1.05-1.16,1.63-1.81,.58-.65,.94-1.02,1.08-1.11,.28-.23,.64-.37,1.08-.4,.44-.04,.72,.05,.84,.26,.14,.18,.24,1.08,.31,2.68,.05,1.02,.11,1.7,.19,2.05,.08,.35,.23,.62,.44,.83,.26,.26,.46,.39,.62,.4,.16,.01,.55-.04,1.15-.15,.4-.09,.8-.24,1.22-.45,.42-.21,.77-.4,1.05-.57,.28-.17,.54-.32,.8-.43,.25-.12,.46-.14,.63-.07,.16,.07,.29,.26,.38,.56,.09,.23-.22,.65-.96,1.25-.73,.6-1.44,1.04-2.14,1.32-1.3,.42-2.29,.57-2.99,.45-.7-.12-1.21-.45-1.55-.99-.34-.55-.53-1.11-.59-1.69-.05-.58-.11-1.14-.14-1.67-.04-.54-.1-.82-.19-.87-.07-.05-.22,.05-.45,.28-.23,.23-.55,.61-.96,1.13-.41,.52-.74,.91-.99,1.17-.42,.49-.8,1.02-1.13,1.62-.34,.59-.6,1.03-.78,1.32-.19,.29-.41,.43-.66,.43-.6,0-1.04-.34-1.32-1.01-.28-.67-.3-1.45-.07-2.33,.17-.67,.41-2.19,.73-4.55"/>
          <path class="cls-2" d="M303.85,64.85c-.65-.35-1.52-.33-2.61,.07-1.65,.58-3.05,1.67-4.21,3.27-1.07,1.46-1.38,2.57-.94,3.34,.12,.21,.29,.37,.52,.49,.77,.37,1.84,.05,3.22-.97,1.38-1.02,2.58-2.35,3.6-4,.49-.84,.75-1.37,.8-1.6,.04-.23-.08-.43-.39-.59m4.1-7.65c.49-1.04,.85-1.74,1.08-2.08,.23-.35,.44-.52,.62-.52,1.02,0,1.1,1.11,.24,3.34-.35,.91-.84,1.95-1.49,3.13-.32,.58-.57,1.04-.75,1.38-.17,.34-.35,.71-.52,1.13-.17,.42-.3,.73-.37,.94-.07,.21-.21,.67-.43,1.37-.22,.71-.43,1.34-.64,1.9-.33,.99-.56,1.77-.7,2.33-.14,.56-.2,1.01-.18,1.35,.03,.35,.12,.58,.3,.7,.17,.12,.45,.17,.82,.17,.49,0,1.37-.34,2.66-1.03,1.28-.68,2.28-1.35,2.97-2,.88-.79,1.41-1.18,1.57-1.18,.23,0,.36,.21,.4,.64,.04,.43-.04,.8-.22,1.09-.3,.44-.89,.99-1.77,1.65-.88,.66-1.74,1.19-2.57,1.58-.65,.33-1.18,.53-1.58,.61-.41,.08-1,.12-1.79,.12h-1.88l-1.32-2.71-1.25,1.07c-.84,.72-1.47,1.2-1.91,1.43-.4,.21-1.15,.32-2.26,.33-1.11,.01-1.8-.09-2.05-.29-.6-.44-.84-1.44-.71-3.01,.13-1.57,.55-2.85,1.27-3.84,.79-1.11,1.85-2,3.2-2.64,1.34-.65,2.85-1.02,4.52-1.11,1-.05,1.62-.11,1.86-.19,.24-.08,.5-.3,.78-.68,.23-.3,.39-.58,.47-.84,.08-.25,.25-.73,.5-1.44,.26-.71,.64-1.6,1.15-2.7"/>
          <path class="cls-2" d="M318.7,64.12c-.09-.14-.21-.21-.35-.21s-.46,.21-.98,.63c-.51,.42-.89,.79-1.15,1.11-.35,.44-.45,.72-.31,.83,.07,.05,.2-.01,.39-.17,.18-.21,.41-.31,.66-.31,.23,0,.6-.27,1.11-.82,.51-.54,.72-.9,.63-1.06m1.63-8.55c.79-.42,1.3-.65,1.53-.7,.23-.04,.44,.02,.63,.21,.28,.28,.33,.54,.14,.8-.18,.26-.69,.65-1.53,1.18l-4.35,2.85c-1.07,.7-1.79,1.14-2.17,1.32-.39,.18-.64,.22-.78,.1-.33-.28-.38-.58-.17-.92,.21-.34,.8-.85,1.77-1.55,1.39-1.04,2.37-1.75,2.92-2.12,.56-.37,1.23-.77,2.02-1.18m-3.34,7.09c.77-.4,1.38-.59,1.86-.59s.9,.19,1.27,.59c.26,.26,.41,.48,.47,.66,.05,.19,.06,.49,.02,.9-.03,.14-.04,.24-.06,.31,0,.07-.1,.25-.26,.54-.16,.29-.37,.56-.62,.82-.25,.25-.67,.58-1.24,.99-.57,.41-1.23,.82-2,1.23-1.07,.55-1.74,1.08-2.02,1.56-.28,.49-.3,1.19-.07,2.12,.39,1.58,1.05,2.37,1.98,2.37,.62,0,1.44-.17,2.43-.52,1-.35,1.77-.72,2.33-1.12,.76-.58,1.28-.75,1.56-.5,.28,.24,.12,.73-.49,1.44-.37,.44-1.04,.91-2.03,1.39-.98,.49-1.94,.81-2.87,.97-.88,.18-1.56,.19-2.05,.03-.49-.16-.96-.54-1.43-1.15-.51-.65-.85-1.28-1.03-1.88-.17-.6-.26-1.44-.26-2.5,0-.9,.04-1.54,.13-1.91,.08-.37,.32-.91,.72-1.63,1.09-2.08,2.3-3.47,3.65-4.14"/>
          <path class="cls-2" d="M326.26,66.31c.93-.49,1.61-1.2,2.06-2.16,.32-.67,.31-1.01-.03-1.01s-.94,.38-1.78,1.15c-.74,.69-1.18,1.33-1.32,1.91-.09,.39,.11,.5,.62,.31,.12-.04,.27-.11,.45-.21m1.29-4.83c1.3-.63,2.17-.72,2.64-.28,.18,.21,.27,.77,.26,1.69-.01,.92-.11,1.57-.3,1.97-.35,.67-1.11,1.48-2.29,2.42-1.18,.94-2.14,1.5-2.85,1.69-.51,.14-1.01,.47-1.51,1.01-.5,.54-.75,1.02-.75,1.46s.18,.86,.55,1.27c.37,.4,.75,.61,1.15,.61,.42,0,1.08-.13,2-.38,.91-.26,1.64-.52,2.17-.8,.51-.26,1.02-.61,1.53-1.06,.51-.45,.9-.78,1.18-.99,.28-.21,.52-.24,.73-.11,.39,.23,.53,.53,.41,.89-.11,.36-.5,.82-1.15,1.37-.67,.62-1.33,1.12-1.97,1.48-.64,.36-1.43,.7-2.38,1.02-1.48,.51-2.78,.51-3.9,0-.53-.25-.95-.54-1.25-.85-.3-.31-.58-.78-.84-1.39-.25-.61-.32-1.24-.21-1.88,.11-.64,.45-1.52,1.01-2.66,1.62-3.22,3.53-5.38,5.74-6.47"/>
        </g>
      </g>
    </g>
  </g>
</svg>